<svg width="353" height="249" viewBox="0 0 353 249" fill="none" xmlns="http://www.w3.org/2000/svg">
<path d="M176.43 248.861C273.87 248.861 352.861 241.447 352.861 232.3C352.861 223.153 273.87 215.739 176.43 215.739C78.9905 215.739 0 223.153 0 232.3C0 241.447 78.9905 248.861 176.43 248.861Z" fill="#3F3D56"/>
<path opacity="0.1" d="M167.812 240.074C258.438 240.074 331.905 236.593 331.905 232.3C331.905 228.007 258.438 224.526 167.812 224.526C77.1851 224.526 3.71788 228.007 3.71788 232.3C3.71788 236.593 77.1851 240.074 167.812 240.074Z" fill="black"/>
<path d="M258.59 10.4965V29.0768H234.401V231.709H284.884V36.7898V29.0768V10.4965H258.59Z" fill="#575A89"/>
<path d="M125.372 135.301V103.399H94.5219V135.301H82.9531V232.059H136.591V135.301H125.372Z" fill="#575A89"/>
<path d="M130.631 187.186H88.9127V232.41H130.631V187.186Z" fill="#3F3D56"/>
<path opacity="0.1" d="M95.5736 187.186H88.9127V232.41H95.5736V187.186Z" fill="black"/>
<path d="M216.522 0.329712V11.1975H154.82V0.329712H136.591V232.41H234.401V0.329712H216.522Z" fill="#3F3D56"/>
<path opacity="0.1" d="M230.194 0.329865H216.522V11.1977H230.194V0.329865Z" fill="black"/>
<path opacity="0.1" d="M150.263 0.329865H136.591V232.41H150.263V0.329865Z" fill="black"/>
<path d="M66.8267 66.5883V57.8239H57.7118V66.5883H41.2345V232.41H82.9531V66.5883H66.8267Z" fill="#3F3D56"/>
<path opacity="0.1" d="M62.6197 57.824H57.7116V66.5883H62.6197V57.824Z" fill="black"/>
<path opacity="0.1" d="M46.1427 66.5883H41.2347V232.41H46.1427V66.5883Z" fill="black"/>
<path opacity="0.1" d="M230.194 89.7262H216.522V232.41H230.194V89.7262Z" fill="black"/>
<path opacity="0.1" d="M82.9529 66.5883H70.3323V97.0882H82.9529V66.5883Z" fill="black"/>
<path d="M171.298 29.7781H151.665V38.1919H171.298V29.7781Z" fill="#6B1D15"/>
<path d="M213.016 116.37H193.384V124.784H213.016V116.37Z" fill="#6B1D15"/>
<path d="M171.298 177.019H151.665V185.433H171.298V177.019Z" fill="#6B1D15"/>
<path d="M72.0852 104.45H52.453V112.864H72.0852V104.45Z" fill="#6B1D15"/>
<path d="M119.763 192.094H100.131V200.507H119.763V192.094Z" fill="#6B1D15"/>
<path opacity="0.1" d="M126.775 142.663H93.1196V156.686H126.775V142.663Z" fill="black"/>
<path opacity="0.1" d="M274.016 45.2033H240.361V59.2263H274.016V45.2033Z" fill="black"/>
<path opacity="0.1" d="M274.016 75.0021H240.361V89.025H274.016V75.0021Z" fill="black"/>
<path opacity="0.1" d="M274.016 104.801H240.361V118.824H274.016V104.801Z" fill="black"/>
<path opacity="0.1" d="M274.016 134.6H240.361V148.623H274.016V134.6Z" fill="black"/>
<path opacity="0.1" d="M274.016 164.398H240.361V178.421H274.016V164.398Z" fill="black"/>
<path opacity="0.1" d="M274.016 194.197H240.361V208.22H274.016V194.197Z" fill="black"/>
<path d="M296.452 108.657V70.4445H271.912V108.657H263.148V232.41H304.866V108.657H296.452Z" fill="#3F3D56"/>
<path opacity="0.1" d="M279.625 70.4446H271.912V108.657H279.625V70.4446Z" fill="black"/>
<path opacity="0.1" d="M270.86 108.657H263.148V232.41H270.86V108.657Z" fill="black"/>
<path opacity="0.1" d="M304.866 170.709H284.182V182.979H304.866V170.709Z" fill="black"/>
<path d="M304.516 152.479H284.883V160.893H304.516V152.479Z" fill="#6B1D15"/>
</svg>
