<svg width="420" height="328" viewBox="0 0 420 328" fill="none" xmlns="http://www.w3.org/2000/svg">
<g opacity="0.7">
<path opacity="0.7" d="M274.336 269.772H14.8392L16.6358 122.443L90.8496 107.553H195.772L272.54 118.099L274.336 269.772Z" fill="url(#paint0_linear)"/>
</g>
<path d="M270.743 267.915H18.4323L20.2289 124.301L91.0873 109.41H197.049L268.947 119.956L270.743 267.915Z" fill="#EEEEEE"/>
<g opacity="0.7">
<path opacity="0.7" d="M86.156 54.8209H67.2217V100.113H86.156V54.8209Z" fill="url(#paint1_linear)"/>
</g>
<g opacity="0.7">
<path opacity="0.7" d="M96.2128 157.744V108.791H13.9674L0 157.744V162.761H96.7324V157.744H96.2128Z" fill="url(#paint2_linear)"/>
</g>
<path d="M96.2217 157.797H1.02161L14.8393 109.41H96.2217V157.797Z" fill="#122022"/>
<path opacity="0.1" d="M96.2217 157.797H1.02161L14.8393 109.41H96.2217V157.797Z" fill="black"/>
<path d="M96.7325 157.797H1.02161V162.761H96.7325V157.797Z" fill="#122022"/>
<g opacity="0.7">
<path opacity="0.7" d="M244.377 108.172H161.911V157.68H161.391V162.761H258.388V157.68L244.377 108.172Z" fill="url(#paint3_linear)"/>
</g>
<path d="M161.902 157.797H257.102L243.285 109.41H161.902V157.797Z" fill="#122022"/>
<path opacity="0.1" d="M161.902 157.797H257.102L243.285 109.41H161.902V157.797Z" fill="black"/>
<path d="M161.391 162.761H257.102V157.797H161.391V162.761Z" fill="#122022"/>
<path opacity="0.5" d="M78.3089 182.306H26.6138V221.385H78.3089V182.306Z" fill="#122022"/>
<path opacity="0.1" d="M81.3736 218.599H23.5402V225.42H81.3736V218.599Z" fill="black"/>
<path d="M81.3736 217.98H23.5402V224.801H81.3736V217.98Z" fill="#535461"/>
<g opacity="0.1">
<path opacity="0.1" d="M78.3089 182.306H26.6138V197.816H78.3089V182.306Z" fill="black"/>
</g>
<path opacity="0.5" d="M232.03 182.306H180.334V221.385H232.03V182.306Z" fill="#122022"/>
<path opacity="0.1" d="M235.094 218.599H177.261V225.42H235.094V218.599Z" fill="black"/>
<path d="M235.094 217.98H177.261V224.801H235.094V217.98Z" fill="#535461"/>
<g opacity="0.1">
<path opacity="0.1" d="M232.03 182.306H180.334V197.816H232.03V182.306Z" fill="black"/>
</g>
<g opacity="0.7">
<path opacity="0.7" d="M177.86 112.313L114.725 53.1343L53.6241 112.271L48.8333 105.001L114.654 41.3071L182.554 104.959L177.86 112.313Z" fill="url(#paint4_linear)"/>
</g>
<path opacity="0.1" d="M87.7761 162.761H19.7005V163.689H87.7761V162.761Z" fill="black"/>
<path opacity="0.1" d="M240.475 162.761H171.633V163.689H240.475V162.761Z" fill="black"/>
<path d="M85.6452 55.44H67.7324V100.102H85.6452V55.44Z" fill="#535461"/>
<g opacity="0.7">
<path opacity="0.7" d="M171.633 267.915H56.9883V97.935L114.804 96.3872L171.633 97.935V267.915Z" fill="url(#paint5_linear)"/>
</g>
<path d="M170.348 267.915H58.7761V97.9349L114.566 49.8573L170.348 97.9349V267.915Z" fill="white"/>
<path d="M128.631 210.838H100.484V267.915H128.631V210.838Z" fill="#535461"/>
<path opacity="0.1" d="M143.479 159.665H85.6453V166.486H143.479V159.665Z" fill="black"/>
<path opacity="0.5" d="M140.414 123.372H88.7188V162.451H140.414V123.372Z" fill="#122022"/>
<path d="M143.479 159.046H85.6453V165.867H143.479V159.046Z" fill="#535461"/>
<g opacity="0.1">
<path opacity="0.1" d="M140.414 123.372H88.7188V138.882H140.414V123.372Z" fill="black"/>
</g>
<path d="M177.86 112.933L114.725 53.7535L53.6241 112.89L48.8333 105.621L114.654 41.9262L182.554 105.578L177.86 112.933Z" fill="#122022"/>
<path d="M124.544 241.858C125.673 241.858 126.587 240.75 126.587 239.382C126.587 238.014 125.673 236.905 124.544 236.905C123.416 236.905 122.501 238.014 122.501 239.382C122.501 240.75 123.416 241.858 124.544 241.858Z" fill="#E0E0E0"/>
<g opacity="0.7">
<path opacity="0.7" d="M408.517 300.517H195.025L196.496 107.449L257.553 87.936H343.885L407.046 101.759L408.517 300.517Z" fill="url(#paint6_linear)"/>
</g>
<path d="M405.566 298.084H197.976L199.455 109.883L257.755 90.3804H344.933L404.087 104.193L405.566 298.084Z" fill="#EEEEEE"/>
<g opacity="0.7">
<path opacity="0.7" d="M277.553 4.73945H261.974V42.0039H277.553V4.73945Z" fill="url(#paint7_linear)"/>
</g>
<g opacity="0.7">
<path opacity="0.7" d="M261.974 119.532V79.2576H194.303L182.811 119.532V123.663H262.396V119.532H261.974Z" fill="url(#paint8_linear)"/>
</g>
<path d="M261.974 119.586H183.656L195.025 79.77H261.974V119.586Z" fill="#122022"/>
<path opacity="0.1" d="M261.974 119.586H183.656L195.025 79.77H261.974V119.586Z" fill="black"/>
<path d="M262.405 119.586H183.656V123.674H262.405V119.586Z" fill="#122022"/>
<g opacity="0.7">
<path opacity="0.7" d="M407.733 79.77H339.886V120.504H339.455V124.688H419.252V120.504L407.733 79.77Z" fill="url(#paint9_linear)"/>
</g>
<path d="M339.877 120.6H418.204L406.835 80.7948H339.877V120.6Z" fill="#122022"/>
<path opacity="0.1" d="M339.877 120.6H418.204L406.835 80.7948H339.877V120.6Z" fill="black"/>
<path d="M339.455 124.688L418.204 124.688V120.6L339.455 120.6V124.688Z" fill="#122022"/>
<path opacity="0.5" d="M247.231 228.55H204.704V260.702H247.231V228.55Z" fill="#122022"/>
<path opacity="0.1" d="M249.768 258.407H202.185V264.021H249.768V258.407Z" fill="black"/>
<path d="M249.768 257.905H202.185V263.52H249.768V257.905Z" fill="#535461"/>
<g opacity="0.1">
<path opacity="0.1" d="M247.231 228.55H204.704V241.306H247.231V228.55Z" fill="black"/>
</g>
<path opacity="0.5" d="M397.57 228.55H355.043V260.702H397.57V228.55Z" fill="#122022"/>
<path opacity="0.1" d="M400.097 258.407H352.515V264.021H400.097V258.407Z" fill="black"/>
<path d="M400.097 257.905H352.515V263.52H400.097V257.905Z" fill="#535461"/>
<g opacity="0.1">
<path opacity="0.1" d="M397.57 228.55H355.043V241.306H397.57V228.55Z" fill="black"/>
</g>
<path opacity="0.5" d="M397.57 153.52H355.043V185.671H397.57V153.52Z" fill="#122022"/>
<path opacity="0.1" d="M400.097 183.387H352.515V189.001H400.097V183.387Z" fill="black"/>
<path d="M400.097 182.874H352.515V188.489H400.097V182.874Z" fill="#535461"/>
<g opacity="0.1">
<path opacity="0.1" d="M397.57 153.52H355.043V166.276H397.57V153.52Z" fill="black"/>
</g>
<path opacity="0.5" d="M248.5 153.52H205.972V185.671H248.5V153.52Z" fill="#122022"/>
<path opacity="0.1" d="M251.027 183.387H203.445V189.001H251.027V183.387Z" fill="black"/>
<path d="M251.027 182.874H203.445V188.489H251.027V182.874Z" fill="#535461"/>
<g opacity="0.1">
<path opacity="0.1" d="M248.5 153.52H205.972V166.276H248.5V153.52Z" fill="black"/>
</g>
<g opacity="0.7">
<path opacity="0.7" d="M352.999 58.4212L301.067 9.73508L250.789 58.3891L246.844 52.4115L301.005 0L356.866 52.3688L352.999 58.4212Z" fill="url(#paint10_linear)"/>
</g>
<path opacity="0.1" d="M255.025 123.663H199.024V124.432H255.025V123.663Z" fill="black"/>
<path opacity="0.1" d="M404.518 124.688H347.883V125.457H404.518V124.688Z" fill="black"/>
<path d="M277.139 5.25182H262.396V42.0039H277.139V5.25182Z" fill="#535461"/>
<g opacity="0.7">
<path opacity="0.7" d="M348.094 298.991H253.766V51.9098L301.34 49.6575L348.094 51.9098V298.991Z" fill="url(#paint11_linear)"/>
</g>
<path d="M346.826 298.991H255.025V50.9277L300.926 9.08395L347.671 52.4648L346.826 298.991Z" fill="white"/>
<path d="M312.506 252.034H289.345V298.991H312.506V252.034Z" fill="#535461"/>
<path opacity="0.1" d="M324.721 209.923H277.139V215.538H324.721V209.923Z" fill="black"/>
<path opacity="0.5" d="M322.194 180.067H279.666V212.218H322.194V180.067Z" fill="#122022"/>
<path d="M324.721 209.411H277.139V215.026H324.721V209.411Z" fill="#535461"/>
<g opacity="0.1">
<path opacity="0.1" d="M322.194 180.067H279.666V192.823H322.194V180.067Z" fill="black"/>
</g>
<path opacity="0.5" d="M322.194 117.034H279.666V149.186H322.194V117.034Z" fill="#122022"/>
<path d="M324.721 146.379H277.139V151.993H324.721V146.379Z" fill="#535461"/>
<g opacity="0.1">
<path opacity="0.1" d="M322.194 117.034H279.666V129.79H322.194V117.034Z" fill="black"/>
</g>
<path opacity="0.5" d="M322.194 53.9913H279.666V86.1427H322.194V53.9913Z" fill="#122022"/>
<path d="M324.721 83.3459H277.139V88.9607H324.721V83.3459Z" fill="#535461"/>
<g opacity="0.1">
<path opacity="0.1" d="M322.194 53.9913H279.666V66.7472H322.194V53.9913Z" fill="black"/>
</g>
<path d="M352.999 60.2145L301.067 11.5177L250.789 60.1718L246.844 54.1941L301.005 1.78263L356.866 54.1514L352.999 60.2145Z" fill="#122022"/>
<path d="M309.142 277.546C310.071 277.546 310.824 276.633 310.824 275.507C310.824 274.381 310.071 273.468 309.142 273.468C308.213 273.468 307.46 274.381 307.46 275.507C307.46 276.633 308.213 277.546 309.142 277.546Z" fill="#E0E0E0"/>
<g opacity="0.7">
<path opacity="0.7" d="M222.461 206.322H107.252V328H222.461V206.322Z" fill="url(#paint12_linear)"/>
</g>
<path d="M221.245 207.678H109.225V326.623H221.245V207.678Z" fill="#EEEEEE"/>
<g opacity="0.7">
<path opacity="0.7" d="M144.407 170.381H130.519V203.589H144.407V170.381Z" fill="url(#paint13_linear)"/>
</g>
<path d="M144.029 170.84H130.898V203.589H144.029V170.84Z" fill="#535461"/>
<g opacity="0.7">
<path opacity="0.7" d="M207.076 326.634H123.016V201.999L165.411 200.857L207.076 201.999V326.634Z" fill="url(#paint14_linear)"/>
</g>
<path d="M206.142 326.634H124.328V201.999L165.235 166.741L206.142 201.999V326.634Z" fill="white"/>
<path d="M175.556 284.779H154.914V326.623H175.556V284.779Z" fill="#535461"/>
<path opacity="0.5" d="M184.187 220.647H146.283V249.308H184.187V220.647Z" fill="#122022"/>
<path d="M186.433 246.8H144.029V251.806H186.433V246.8Z" fill="#535461"/>
<g opacity="0.1">
<path opacity="0.1" d="M184.187 220.647H146.283V232.015H184.187V220.647Z" fill="black"/>
</g>
<g opacity="0.7">
<path opacity="0.7" d="M211.637 212.545L165.35 169.154L120.55 212.513L117.036 207.176L165.297 160.475L215.081 207.144L211.637 212.545Z" fill="url(#paint15_linear)"/>
</g>
<path d="M211.637 212.994L165.35 169.602L120.55 212.962L117.036 207.635L165.297 160.924L215.081 207.603L211.637 212.994Z" fill="#122022"/>
<path d="M172.553 307.526C173.38 307.526 174.051 306.714 174.051 305.712C174.051 304.71 173.38 303.897 172.553 303.897C171.727 303.897 171.056 304.71 171.056 305.712C171.056 306.714 171.727 307.526 172.553 307.526Z" fill="#E0E0E0"/>
<defs>
<linearGradient id="paint0_linear" x1="144.588" y1="269.772" x2="144.588" y2="107.553" gradientUnits="userSpaceOnUse">
<stop stop-color="#808080" stop-opacity="0.25"/>
<stop offset="0.54" stop-color="#808080" stop-opacity="0.12"/>
<stop offset="1" stop-color="#808080" stop-opacity="0.1"/>
</linearGradient>
<linearGradient id="paint1_linear" x1="6225.6" y1="5591.72" x2="6225.6" y2="3670.45" gradientUnits="userSpaceOnUse">
<stop stop-color="#808080" stop-opacity="0.25"/>
<stop offset="0.54" stop-color="#808080" stop-opacity="0.12"/>
<stop offset="1" stop-color="#808080" stop-opacity="0.1"/>
</linearGradient>
<linearGradient id="paint2_linear" x1="25165.9" y1="9874.65" x2="25165.9" y2="7145.93" gradientUnits="userSpaceOnUse">
<stop stop-color="#808080" stop-opacity="0.25"/>
<stop offset="0.54" stop-color="#808080" stop-opacity="0.12"/>
<stop offset="1" stop-color="#808080" stop-opacity="0.1"/>
</linearGradient>
<linearGradient id="paint3_linear" x1="46380.3" y1="9986.06" x2="46380.3" y2="7194.38" gradientUnits="userSpaceOnUse">
<stop stop-color="#808080" stop-opacity="0.25"/>
<stop offset="0.54" stop-color="#808080" stop-opacity="0.12"/>
<stop offset="1" stop-color="#808080" stop-opacity="0.1"/>
</linearGradient>
<linearGradient id="paint4_linear" x1="49463.9" y1="9534.14" x2="49463.9" y2="4810.8" gradientUnits="userSpaceOnUse">
<stop stop-color="#808080" stop-opacity="0.25"/>
<stop offset="0.54" stop-color="#808080" stop-opacity="0.12"/>
<stop offset="1" stop-color="#808080" stop-opacity="0.1"/>
</linearGradient>
<linearGradient id="paint5_linear" x1="42243" y1="48031.4" x2="42243" y2="20468.7" gradientUnits="userSpaceOnUse">
<stop stop-color="#808080" stop-opacity="0.25"/>
<stop offset="0.54" stop-color="#808080" stop-opacity="0.12"/>
<stop offset="1" stop-color="#808080" stop-opacity="0.1"/>
</linearGradient>
<linearGradient id="paint6_linear" x1="157167" y1="59935.9" x2="157167" y2="17600.4" gradientUnits="userSpaceOnUse">
<stop stop-color="#808080" stop-opacity="0.25"/>
<stop offset="0.54" stop-color="#808080" stop-opacity="0.12"/>
<stop offset="1" stop-color="#808080" stop-opacity="0.1"/>
</linearGradient>
<linearGradient id="paint7_linear" x1="11150.4" y1="1471.1" x2="11150.4" y2="170.194" gradientUnits="userSpaceOnUse">
<stop stop-color="#808080" stop-opacity="0.25"/>
<stop offset="0.54" stop-color="#808080" stop-opacity="0.12"/>
<stop offset="1" stop-color="#808080" stop-opacity="0.1"/>
</linearGradient>
<linearGradient id="paint8_linear" x1="51545.1" y1="5223.65" x2="51545.1" y2="3376.38" gradientUnits="userSpaceOnUse">
<stop stop-color="#808080" stop-opacity="0.25"/>
<stop offset="0.54" stop-color="#808080" stop-opacity="0.12"/>
<stop offset="1" stop-color="#808080" stop-opacity="0.1"/>
</linearGradient>
<linearGradient id="paint9_linear" x1="66041.3" y1="5326.64" x2="66041.3" y2="3436.49" gradientUnits="userSpaceOnUse">
<stop stop-color="#808080" stop-opacity="0.25"/>
<stop offset="0.54" stop-color="#808080" stop-opacity="0.12"/>
<stop offset="1" stop-color="#808080" stop-opacity="0.1"/>
</linearGradient>
<linearGradient id="paint10_linear" x1="81152.4" y1="3197.39" x2="81152.4" y2="0" gradientUnits="userSpaceOnUse">
<stop stop-color="#808080" stop-opacity="0.25"/>
<stop offset="0.54" stop-color="#808080" stop-opacity="0.12"/>
<stop offset="1" stop-color="#808080" stop-opacity="0.1"/>
</linearGradient>
<linearGradient id="paint11_linear" x1="69519" y1="69887.9" x2="69519" y2="11648.6" gradientUnits="userSpaceOnUse">
<stop stop-color="#808080" stop-opacity="0.25"/>
<stop offset="0.54" stop-color="#808080" stop-opacity="0.12"/>
<stop offset="1" stop-color="#808080" stop-opacity="0.1"/>
</linearGradient>
<linearGradient id="paint12_linear" x1="7643.06" y1="34574.2" x2="7643.06" y2="20704.2" gradientUnits="userSpaceOnUse">
<stop stop-color="#808080" stop-opacity="0.25"/>
<stop offset="0.54" stop-color="#808080" stop-opacity="0.12"/>
<stop offset="1" stop-color="#808080" stop-opacity="0.1"/>
</linearGradient>
<linearGradient id="paint13_linear" x1="606.881" y1="5679.61" x2="606.881" y2="4646.51" gradientUnits="userSpaceOnUse">
<stop stop-color="#808080" stop-opacity="0.25"/>
<stop offset="0.54" stop-color="#808080" stop-opacity="0.12"/>
<stop offset="1" stop-color="#808080" stop-opacity="0.1"/>
</linearGradient>
<linearGradient id="paint14_linear" x1="5639.01" y1="35565.5" x2="5639.01" y2="20745.2" gradientUnits="userSpaceOnUse">
<stop stop-color="#808080" stop-opacity="0.25"/>
<stop offset="0.54" stop-color="#808080" stop-opacity="0.12"/>
<stop offset="1" stop-color="#808080" stop-opacity="0.1"/>
</linearGradient>
<linearGradient id="paint15_linear" x1="6664.46" y1="9235.73" x2="6664.46" y2="6695.76" gradientUnits="userSpaceOnUse">
<stop stop-color="#808080" stop-opacity="0.25"/>
<stop offset="0.54" stop-color="#808080" stop-opacity="0.12"/>
<stop offset="1" stop-color="#808080" stop-opacity="0.1"/>
</linearGradient>
</defs>
</svg>
