<svg xmlns="http://www.w3.org/2000/svg" width="300" height="300" viewBox="0 0 300 300">
  <defs>
    <style>
      .cls-1 {
        fill: #273d4d;
        fill-rule: evenodd;
      }
    </style>
  </defs>
  <path id="Color_Fill_1" data-name="Color Fill 1" class="cls-1" d="M0,0H140V140H0V0ZM161,0H300q-0.5,43.5-1,87c-39.072-17.429-27.708-28.413-45-63h-1c-2.48,42.436-29.342,63.336-69,69v1c33.7,3.124,53.829,18.992,64,46H161V0ZM300,140H260c7.339-18.984,19.346-34.513,40-40v40ZM0,159H139V300H0V159Zm161,0H300V300H161V159ZM70,223c-2.952,24.041-14.473,33.4-37,38,20.928,10.121,33.115,10.815,37,38h1c2.549-27.589,16.624-28.171,37-38C80.236,255.543,80.8,245.215,70,223Z"/>
</svg>
