<svg width="284" height="289" viewBox="0 0 284 289" fill="none" xmlns="http://www.w3.org/2000/svg">
<path d="M255.73 231.156C259.538 244.498 222.874 274.982 158.365 257.965C106.426 244.264 61 238.461 61 231.156C61 223.852 104.592 231.513 158.365 231.513C212.138 231.513 253.722 224.124 255.73 231.156Z" fill="#3F3D56"/>
<path opacity="0.1" d="M255.738 231.156C259.43 244.498 223.893 274.982 161.369 257.965C111.029 244.264 67 238.461 67 231.156C67 223.852 109.25 231.514 161.369 231.514C213.488 231.514 253.792 224.124 255.738 231.156Z" fill="black"/>
<path d="M255.742 227.588C259.376 240.287 224.402 256.373 162.871 240.176C113.33 227.135 70 234.54 70 227.588C70 220.636 111.58 215 162.871 215C214.162 215 253.828 220.895 255.742 227.588Z" fill="#3F3D56"/>
<path opacity="0.1" d="M153.001 236C161.285 236 168 233.537 168 230.5C168 227.463 161.285 225 153.001 225C144.715 225 138 227.463 138 230.5C138 233.537 144.715 236 153.001 236Z" fill="black"/>
<path opacity="0.1" d="M204 236C212.284 236 219 233.537 219 230.5C219 227.463 212.284 225 204 225C195.715 225 189 227.463 189 230.5C189 233.537 195.715 236 204 236Z" fill="black"/>
<path d="M265 27H40V159H265V27Z" fill="#3F3D56"/>
<path d="M262 29H43V157H262V29Z" fill="#F2F2F2"/>
<path opacity="0.1" d="M263 30C263 30 172.021 39.7447 155.45 77.379C138.879 115.013 44 155 44 155H263V30Z" fill="black"/>
<path d="M203.548 88V99.7069H153.452V88.7157H152V229H153.452V203.885H203.548V229H205V88H203.548ZM203.548 100.977V120.288H153.452V100.977H203.548ZM153.452 161.452V142.141H203.548V161.452H153.452ZM203.548 162.722V182.033H153.452V162.722H203.548ZM153.452 140.87V121.559H203.548V140.87H153.452ZM153.452 202.615V183.303H203.548V202.615H153.452Z" fill="#2F2E41"/>
<path d="M135.74 120V122.121C135.74 122.121 134.218 122.727 134.218 125.151C134.218 127.574 133 136.664 133 136.664C133 136.664 135.131 138.482 136.956 137.876C137.968 137.57 138.901 137.055 139.696 136.361L140 126.968L138.783 124.545V120.303L135.74 120Z" fill="#122022"/>
<path d="M192 39C192 39 187 39.6106 187 42.053C187 44.4953 183 53.6542 183 53.6542C183 53.6542 190 55.486 196 54.8754C202 54.2648 205 53.3489 205 53.3489L206 43.8847L202 41.4423L192 39Z" fill="#122022"/>
<path d="M192.905 58.8307V53.2769C192.905 53.2769 187.172 41 191.813 41C196.454 41 197 52.1076 197 52.1076V60L192.905 58.8307Z" fill="#FFB8B8"/>
<path d="M140.102 117.703C140.102 117.703 136.808 116.121 136.21 117.703C135.611 119.284 133.816 122.711 136.21 122.974C138.605 123.238 141 121.393 141 121.393L140.102 117.703Z" fill="#FFB8B8"/>
<path d="M155.587 129.453C155.587 129.453 153.84 131.788 156.374 154.568C158.908 177.348 157.449 193.934 162.259 193.707C162.259 193.707 161.004 198.646 165.092 198.829C169.179 199.01 171.047 199.298 171.366 198.157C171.684 197.016 172.182 191.736 171.072 191.789C171.072 191.789 171.141 193.287 171.605 187.259C172.068 181.231 170.755 152.762 172.433 148.928L178.994 162.508C178.994 162.508 179.287 168.877 180.536 171.82C181.784 174.765 184.429 191.908 184.429 191.908L184.18 194.548C184.18 194.548 193.131 195.626 193.432 194.111C193.733 192.594 193.629 190.347 193.225 189.615C192.82 188.884 192.82 188.884 193.491 187.351C193.788 186.774 193.959 186.14 193.994 185.49C194.028 184.841 193.923 184.192 193.688 183.587C193.266 182.481 192.143 158.133 192.143 158.133C192.143 158.133 190.038 128.576 185.529 127.288C181.018 125.999 155.587 129.453 155.587 129.453Z" fill="#2F2E41"/>
<path d="M163.505 195L160.772 200.242C160.772 200.242 156.045 198.813 157.174 202.965C161.713 203.103 166.253 202.834 170.742 202.161C170.742 202.161 172.636 202.805 172.956 201.694C173.275 200.583 171.791 196.813 170.676 196.864C169.56 196.915 163.505 195 163.505 195Z" fill="#2F2E41"/>
<path d="M184.909 192.676C184.909 192.676 182.102 199.728 183.296 200.058C184.491 200.388 195.15 201.44 195.953 201.788C196.755 202.136 200.695 202.341 200.977 200.019C201.259 197.699 198.87 197.039 198.87 197.039C198.87 197.039 194.52 196.469 193.16 192.684C191.802 188.9 184.909 192.676 184.909 192.676Z" fill="#2F2E41"/>
<path d="M159.5 73C163.642 73 167 69.6421 167 65.5C167 61.3579 163.642 58 159.5 58C155.358 58 152 61.3579 152 65.5C152 69.6421 155.358 73 159.5 73Z" fill="#FFB8B8"/>
<path d="M156 70.0056C156 70.0056 158.097 80.3058 157.258 82.2867C156.419 84.2675 169 81.4944 169 81.4944C169 81.4944 166.484 71.1941 166.903 68.8171C167.323 66.4401 156 70.0056 156 70.0056Z" fill="#FFB8B8"/>
<path d="M159.377 57.0713C158.766 56.9526 158.137 56.9824 157.538 57.1582C157.058 57.3857 156.617 57.6958 156.23 58.0764C155.53 58.6739 154.783 59.2045 153.996 59.6619C153.339 59.9646 152.747 60.409 152.258 60.9672C152.05 61.272 151.885 61.607 151.767 61.962C151.012 64.0243 150.809 66.2709 151.181 68.4498C151.223 68.7593 151.31 69.06 151.439 69.3406C151.841 70.1341 152.729 70.4468 153.478 70.8628C154.899 71.6525 155.975 72.9823 157.14 74.1576C157.573 74.6203 158.059 75.0217 158.588 75.3519C160.25 76.3226 162.282 76.0059 164.148 75.6627C164.28 75.6624 164.411 75.6342 164.533 75.5794C164.655 75.5247 164.766 75.4447 164.858 75.344C164.952 75.2434 165.025 75.1239 165.075 74.9927C165.124 74.8614 165.149 74.721 165.147 74.5793L166.621 67.4849C166.887 66.4338 167.015 65.3475 166.999 64.2584C166.895 62.5362 166.025 60.1506 164.845 58.9273C163.47 57.5019 161.175 57.2751 159.377 57.0713Z" fill="#2F2E41"/>
<path d="M153.402 83.5247C153.402 83.5247 153.982 79.4725 157.458 79.183C159.424 78.9975 161.366 78.6095 163.252 78.0252C163.542 78.0252 167.309 78.3146 169.047 80.0513C169.047 80.0513 170.206 81.788 170.785 80.6302C171.365 79.4725 171.364 78.8935 172.523 79.4724C173.683 80.0514 173.683 77.7357 175.71 78.0252C177.738 78.3146 182.953 91.3399 182.953 91.3399L181.215 93.366C181.215 93.366 178.897 108.996 182.953 115.654C187.009 122.311 188.747 129.547 184.692 130.994C180.635 132.442 152.243 145.467 153.402 137.362C154.561 129.258 153.692 116.522 152.533 116.232C151.374 115.943 145 93.0765 145 93.0765C145.257 91.6247 145.866 90.2582 146.775 89.0973C147.686 87.9363 148.866 87.0166 150.216 86.4192C154.851 84.3931 153.402 83.5247 153.402 83.5247Z" fill="#575A88"/>
<path d="M175 78.6578L176.41 77.5101C176.41 77.5101 178.949 77.5101 179.231 76.9363C179.513 76.3625 180.924 76.3625 182.051 75.7887C183.18 75.2149 181.77 74.3541 183.18 73.7802C184.59 73.2065 184.59 73.7802 184.59 72.3457C184.59 70.9111 188.257 69.4766 188.539 67.755C188.821 66.0336 191.642 58 191.642 58L197 59.7214L195.59 70.0504C195.59 70.0504 195.59 75.2149 193.052 78.6578C190.513 82.1007 184.872 90.7083 182.051 90.9952C179.231 91.2821 175 78.6578 175 78.6578Z" fill="#575A88"/>
<path d="M147.664 91L145.96 92.4545C145.96 92.4545 145.393 98.8545 145.393 99.1454C145.393 99.4364 145.96 102.927 145.393 103.218C144.826 103.509 143.69 109.327 143.974 109.618V110.491L140 116.891V123L149.367 116.891C149.367 116.891 154.76 116.309 153.909 111.364C153.057 106.418 147.664 91 147.664 91Z" fill="#575A88"/>
</svg>
