<svg width="336" height="249" viewBox="0 0 336 249" fill="none" xmlns="http://www.w3.org/2000/svg">
<path d="M161.529 248.76H0.980392V43.2389H161.529V248.76ZM1.88235 247.859H160.627V44.1403H1.88235V247.859Z" fill="#2F2E41"/>
<path d="M150.706 55.8586H11.8039V143.746H150.706V55.8586Z" fill="#F2F2F2"/>
<path d="M150.706 140.141H11.8039V234.338H150.706V140.141Z" fill="#F2F2F2"/>
<path d="M84.8628 55.4079H77.6471V143.746H84.8628V55.4079Z" fill="#2F2E41"/>
<path d="M150.706 55.4079H143.49V143.746H150.706V55.4079Z" fill="#2F2E41"/>
<path d="M150.706 143.746V136.535H11.8039V143.746H150.706Z" fill="#2F2E41"/>
<path d="M31.4342 103.183L19.0196 111.522V118.421L37.8259 103.183H31.4342Z" fill="white"/>
<path d="M51.888 103.183L19.0196 128.898V134.775L61.8591 103.183H51.888Z" fill="white"/>
<path d="M19.0196 55.4079H11.8039V143.746H19.0196V55.4079Z" fill="#2F2E41"/>
<path d="M130.635 62.6191L102.902 97.7741L111.471 98.6755L135.373 61.267L130.635 62.6191Z" fill="white"/>
<path d="M150.706 62.6192V55.4079L11.8039 55.4079V62.6192L150.706 62.6192Z" fill="#2F2E41"/>
<path d="M150.706 103.183V95.9714L11.8039 95.9714V103.183L150.706 103.183Z" fill="#2F2E41"/>
<path d="M150.706 55.8586H11.8039V143.746H150.706V55.8586Z" fill="#F2F2F2"/>
<path d="M84.8628 55.4079H77.6471V143.746H84.8628V55.4079Z" fill="#2F2E41"/>
<path d="M150.706 55.4079H143.49V143.746H150.706V55.4079Z" fill="#2F2E41"/>
<path d="M150.706 143.746V136.535H11.8039V143.746H150.706Z" fill="#2F2E41"/>
<path d="M31.4342 103.183L19.0196 111.522V118.421L37.8259 103.183H31.4342Z" fill="white"/>
<path d="M51.888 103.183L19.0196 128.898V134.775L61.8591 103.183H51.888Z" fill="white"/>
<path d="M19.0196 55.4079H11.8039V143.746H19.0196V55.4079Z" fill="#2F2E41"/>
<path d="M130.635 62.6191L102.902 97.7741L111.471 98.6755L135.373 61.267L130.635 62.6191Z" fill="white"/>
<path d="M150.706 62.6192V55.4079L11.8039 55.4079V62.6192L150.706 62.6192Z" fill="#2F2E41"/>
<path d="M150.706 103.183V95.9714L11.8039 95.9714V103.183L150.706 103.183Z" fill="#2F2E41"/>
<path d="M150.902 146.451H12V234.338H150.902V146.451Z" fill="#F2F2F2"/>
<path d="M85.0588 146H77.8431V234.338H85.0588V146Z" fill="#2F2E41"/>
<path d="M150.902 146H143.686V234.338H150.902V146Z" fill="#2F2E41"/>
<path d="M150.902 234.338V227.127H12V234.338H150.902Z" fill="#2F2E41"/>
<path d="M31.6303 193.775L19.2157 202.115V209.013L38.022 193.775H31.6303Z" fill="white"/>
<path d="M117.868 195L85 220.715V226.592L127.84 195H117.868Z" fill="white"/>
<path d="M19.2157 146H12V234.338H19.2157V146Z" fill="#2F2E41"/>
<path d="M49.7335 154.352L22 189.507L30.5686 190.409L54.4706 153L49.7335 154.352Z" fill="white"/>
<path d="M150.902 153.211V146H12V153.211H150.902Z" fill="#2F2E41"/>
<path d="M150.902 193.775V186.563H12V193.775H150.902Z" fill="#2F2E41"/>
<path d="M335.216 205.943H174.667V0.421885H335.216V205.943ZM175.569 205.042H334.314V1.32329H175.569V205.042Z" fill="#2F2E41"/>
<path d="M324.392 13.0416H185.49V100.929H324.392V13.0416Z" fill="#F2F2F2"/>
<path d="M324.392 98.3235H185.49V192.521H324.392V98.3235Z" fill="#F2F2F2"/>
<path d="M258.549 12.5909H251.333V100.929H258.549V12.5909Z" fill="#2F2E41"/>
<path d="M324.392 12.5909H317.176V100.929H324.392V12.5909Z" fill="#2F2E41"/>
<path d="M324.392 100.929V93.7179L185.49 93.7179V100.929L324.392 100.929Z" fill="#2F2E41"/>
<path d="M205.12 60.3656L192.706 68.7054V75.6044L211.512 60.3656H205.12Z" fill="white"/>
<path d="M225.574 60.3656L192.706 86.0806V91.9578L235.545 60.3656H225.574Z" fill="white"/>
<path d="M192.706 12.5909H185.49V100.929H192.706V12.5909Z" fill="#2F2E41"/>
<path d="M304.322 19.8021L276.588 54.9571L285.157 55.8585L309.059 18.45L304.322 19.8021Z" fill="white"/>
<path d="M324.392 19.8022V12.5909L185.49 12.5909V19.8022L324.392 19.8022Z" fill="#2F2E41"/>
<path d="M324.392 60.3657V53.1544L185.49 53.1544V60.3657L324.392 60.3657Z" fill="#2F2E41"/>
<path d="M324.392 105.042H185.49V192.929H324.392V105.042Z" fill="#F2F2F2"/>
<path d="M258.549 104.591H251.333V192.929H258.549V104.591Z" fill="#2F2E41"/>
<path d="M324.392 104.591H317.176V192.929H324.392V104.591Z" fill="#2F2E41"/>
<path d="M324.392 192.929V185.718H185.49V192.929H324.392Z" fill="#2F2E41"/>
<path d="M205.12 152.366L192.706 160.705V167.604L211.512 152.366H205.12Z" fill="white"/>
<path d="M225.574 152.366L192.706 178.081V183.958L235.545 152.366H225.574Z" fill="white"/>
<path d="M192.706 104.591H185.49V192.929H192.706V104.591Z" fill="#2F2E41"/>
<path d="M304.322 111.802L276.588 146.957L285.157 147.859L309.059 110.45L304.322 111.802Z" fill="white"/>
<path d="M324.392 110.802V103.591L185.49 103.591V110.802L324.392 110.802Z" fill="#2F2E41"/>
<path d="M324.392 152.366V145.154H185.49V152.366H324.392Z" fill="#2F2E41"/>
</svg>
